<svg height="512pt" viewBox="-27 0 512 512" width="512pt" xmlns="http://www.w3.org/2000/svg"><path d="m399.28125 122.34375c-3.707031-15.460938-11.890625-29.550781-23.726562-40.558594-12.722657-11.832031-28.691407-19.183594-45.75-21.210937-19.878907-37.085938-58.65625-60.574219-101.230469-60.574219-42.566407 0-81.339844 23.484375-101.222657 60.566406-17.085937 2.007813-33.085937 9.367188-45.824218 21.21875-11.835938 11.007813-20.023438 25.101563-23.730469 40.558594-32.835937 6.023438-57.796875 34.851562-57.796875 69.398438 0 38.90625 31.652344 70.554687 70.554688 70.554687h315.96875c38.90625 0 70.554687-31.648437 70.554687-70.554687 0-34.546876-24.960937-63.375-57.796875-69.398438zm0 0"/><path d="m33.929688 321.363281v58.328125l54.921874 33.371094 54.925782-33.371094v-58.328125l-54.925782-33.371093zm0 0"/><path d="m173.617188 420.300781v58.328125l54.921874 33.371094 54.921876-33.371094v-58.328125l-54.921876-33.371093zm0 0"/><path d="m313.304688 321.363281v58.328125l54.921874 33.371094 54.921876-33.371094v-58.328125l-54.921876-33.371093zm0 0"/><path d="m207.28125 329.816406 21.253906-21.253906 21.253906 21.253906-21.253906 21.253906zm0 0"/><path d="m67.59375 470.171875 21.253906-21.253906 21.253906 21.253906-21.25 21.253906zm0 0"/><path d="m346.96875 470.171875 21.25-21.25 21.253906 21.253906-21.25 21.253907zm0 0"/></svg>