<?xml version="1.0"?>
<svg xmlns="http://www.w3.org/2000/svg" viewBox="0 0 512 512" width="512" height="512"><g id="solid"><path d="M298.7,400.585l7.728,2.07a8,8,0,1,0,4.141-15.455l-3.2-.857.857-3.2A8,8,0,0,0,292.77,379l-2.071,7.727-15.1,8.72L264,388.754v-17.44l5.657-5.657a8,8,0,0,0-11.314-11.314L256,356.687l-2.343-2.344a8,8,0,0,0-11.314,11.314L248,371.314v17.44l-11.6,6.695-15.1-8.72L219.23,379a8,8,0,0,0-15.455,4.141l.857,3.2-3.2.857a8,8,0,1,0,4.141,15.455l7.728-2.07,15.1,8.72V422.7l-15.1,8.72-7.728-2.07a8,8,0,0,0-4.141,15.455l3.2.857-.857,3.2A8,8,0,1,0,219.23,453l2.071-7.727,15.1-8.72,11.6,6.695v17.44l-5.657,5.657a8,8,0,0,0,11.314,11.314L256,475.313l2.343,2.344a8,8,0,0,0,11.314-11.314L264,460.686v-17.44l11.6-6.695,15.1,8.72L292.77,453a8,8,0,1,0,15.455-4.141l-.857-3.2,3.2-.857a8,8,0,0,0-4.141-15.455l-7.728,2.07-15.1-8.72v-13.39Z"/><path d="M142.2,296.585l7.728,2.07a8,8,0,1,0,4.14-15.455l-3.2-.857.858-3.2A8,8,0,0,0,136.272,275l-2.07,7.727-15.1,8.719-11.6-6.694v-17.44l5.657-5.657a8,8,0,0,0-11.313-11.314L99.5,252.687l-2.343-2.344a8,8,0,0,0-11.313,11.314l5.656,5.657v17.44l-11.6,6.695-15.1-8.72L62.733,275a8,8,0,0,0-15.455,4.141l.857,3.2-3.2.857a8,8,0,1,0,4.141,15.455l7.728-2.07,15.1,8.72V318.7l-15.1,8.72-7.728-2.07A8,8,0,1,0,44.935,340.8l3.2.857-.857,3.2A8,8,0,1,0,62.733,349l2.07-7.727,15.1-8.72,11.6,6.695v17.44l-5.656,5.657a8,8,0,1,0,11.313,11.314l2.343-2.344,2.344,2.344a8,8,0,0,0,11.313-11.314l-5.657-5.657v-17.44l11.6-6.694,15.1,8.719,2.07,7.727a8,8,0,0,0,15.456-4.141l-.858-3.2,3.2-.857a8,8,0,1,0-4.14-15.455l-7.728,2.07-15.1-8.72v-13.39Z"/><path d="M420.5,356.687l-2.344-2.344a8,8,0,0,0-11.313,11.314l5.657,5.657v17.44l-11.6,6.694-15.1-8.719L383.728,379a8,8,0,0,0-15.456,4.141l.858,3.2-3.2.857a8,8,0,1,0,4.14,15.455l7.728-2.07,15.1,8.72V422.7l-15.1,8.72-7.728-2.07a8,8,0,1,0-4.14,15.455l3.2.857-.858,3.2A8,8,0,1,0,383.728,453l2.07-7.727,15.1-8.719,11.6,6.694v17.44l-5.657,5.657a8,8,0,0,0,11.313,11.314l2.344-2.344,2.343,2.344a8,8,0,1,0,11.313-11.314l-5.656-5.657v-17.44l11.6-6.695,15.1,8.72,2.07,7.727a8,8,0,0,0,15.455-4.141l-.857-3.2,3.2-.857a8,8,0,0,0-4.141-15.455l-7.728,2.07-15.1-8.72v-13.39l15.1-8.72,7.728,2.07a8,8,0,1,0,4.141-15.455l-3.2-.857.857-3.2A8,8,0,0,0,457.267,379l-2.07,7.727-15.1,8.72-11.6-6.695v-17.44l5.656-5.657a8,8,0,0,0-11.313-11.314l-2.343,2.344"/><path d="M148,232H364a60,60,0,0,0,9.515-119.241,48.045,48.045,0,0,0-55.1-31.8A72,72,0,0,0,177.8,80.045C177.2,80.019,176.6,80,176,80a40,40,0,0,0-39.394,33.094A60,60,0,0,0,148,232Zm44-56h56a8,8,0,0,1,0,16H192a8,8,0,0,1,0-16Zm-56,0h24a8,8,0,0,1,0,16H136a8,8,0,0,1,0-16Z"/><circle cx="256" cy="280" r="16"/><circle cx="56" cy="408" r="16"/><circle cx="432" cy="280" r="16"/><circle cx="136" cy="448" r="24"/><circle cx="352" cy="328" r="24"/></g></svg>
