<?xml version="1.0" encoding="iso-8859-1"?>
<!-- Generator: Adobe Illustrator 18.0.0, SVG Export Plug-In . SVG Version: 6.00 Build 0)  -->
<!DOCTYPE svg PUBLIC "-//W3C//DTD SVG 1.1//EN" "http://www.w3.org/Graphics/SVG/1.1/DTD/svg11.dtd">
<svg version="1.1" id="Capa_1" xmlns="http://www.w3.org/2000/svg" xmlns:xlink="http://www.w3.org/1999/xlink" x="0px" y="0px"
	 viewBox="0 0 349.026 349.026" style="enable-background:new 0 0 349.026 349.026;" xml:space="preserve">
<g>
	<path d="M274.055,73.891c-10.968-28.29-38.414-48.312-70.54-48.312c-3.074,0-6.095,0.186-9.064,0.563
		c-13.829-14.947-33.576-24.314-55.521-24.314c-40.913,0-74.213,32.469-75.603,73.047C27.408,80.764,0,111.927,0,149.544
		c0,41.77,33.874,75.627,75.65,75.627h197.715c41.79,0,75.661-33.857,75.661-75.627C349.026,107.988,315.522,74.273,274.055,73.891z
		"/>
	<polygon points="193.81,234.419 144.318,287.769 172.274,297.341 155.221,347.199 204.708,293.826 176.742,284.287 	"/>
</g>
<g>
</g>
<g>
</g>
<g>
</g>
<g>
</g>
<g>
</g>
<g>
</g>
<g>
</g>
<g>
</g>
<g>
</g>
<g>
</g>
<g>
</g>
<g>
</g>
<g>
</g>
<g>
</g>
<g>
</g>
</svg>
