<?xml version="1.0" standalone="no"?>
<!DOCTYPE svg PUBLIC "-//W3C//DTD SVG 20010904//EN"
 "http://www.w3.org/TR/2001/REC-SVG-20010904/DTD/svg10.dtd">
<svg id="Capa_1" enable-background="new 0 0 512 512" height="512" viewBox="0 0 512 512" width="512"
    xmlns="http://www.w3.org/2000/svg">

<g transform="translate(0.000000,512.000000) scale(0.100000,-0.100000)"
fill="#000000" stroke="none">
<path d="M4202 4597 l-232 -232 105 -105 105 -105 98 98 c53 53 101 97 105 97
4 0 7 -162 7 -360 l0 -361 148 3 147 3 3 360 2 359 100 -99 100 -100 107 108
108 107 -230 230 -230 230 -105 0 -105 0 -233 -233z"/>
<path d="M2410 3465 l0 -555 150 0 150 0 0 555 0 555 -150 0 -150 0 0 -555z"/>
<path d="M1573 3406 c-68 -29 -126 -55 -129 -58 -5 -5 230 -581 254 -624 5 -9
45 4 141 44 73 31 134 59 135 62 3 14 -260 630 -269 629 -5 -1 -65 -25 -132
-53z"/>
<path d="M3393 3423 c-8 -21 -66 -161 -129 -310 -63 -150 -114 -276 -114 -281
0 -8 251 -116 267 -114 6 0 44 86 233 539 l38 91 -134 56 c-73 31 -136 56
-139 56 -3 0 -13 -17 -22 -37z"/>
<path d="M452 3147 l-102 -102 393 -393 392 -392 105 105 105 105 -390 390
c-214 215 -392 390 -395 390 -3 0 -51 -46 -108 -103z"/>
<path d="M4165 2860 l-390 -390 105 -105 105 -105 392 392 393 393 -102 102
c-57 57 -105 103 -108 103 -3 0 -181 -175 -395 -390z"/>
<path d="M2425 2610 c-488 -40 -947 -324 -1205 -745 -101 -164 -179 -371 -207
-549 -9 -56 -17 -107 -19 -113 -3 -10 -111 -13 -499 -13 l-495 0 0 -150 0
-150 2560 0 2560 0 0 150 0 150 -495 0 c-388 0 -496 3 -499 13 -2 6 -10 57
-19 113 -75 474 -400 910 -847 1134 -183 92 -365 142 -578 160 -127 11 -126
11 -257 0z"/>
<path d="M214 2076 c-2 -6 -24 -65 -49 -131 -25 -66 -45 -125 -45 -131 0 -5
144 -64 320 -131 l319 -120 29 76 c54 142 75 201 71 205 -2 2 -147 58 -322
124 -200 75 -320 115 -323 108z"/>
<path d="M4570 1962 c-168 -63 -307 -117 -308 -118 -3 -2 38 -115 93 -256 4
-10 12 -18 18 -18 9 0 624 228 634 235 2 1 -20 63 -49 138 -37 98 -56 137 -67
136 -9 0 -153 -53 -321 -117z"/>
<path d="M640 440 l0 -150 1920 0 1920 0 0 150 0 150 -1920 0 -1920 0 0 -150z"/>
</g>
</svg>
